<?xml version="1.0" encoding="UTF-8" standalone="no"?>
<svg
   xmlns:dc="http://purl.org/dc/elements/1.1/"
   xmlns:cc="http://creativecommons.org/ns#"
   xmlns:rdf="http://www.w3.org/1999/02/22-rdf-syntax-ns#"
   xmlns:svg="http://www.w3.org/2000/svg"
   xmlns="http://www.w3.org/2000/svg"
   xmlns:sodipodi="http://sodipodi.sourceforge.net/DTD/sodipodi-0.dtd"
   xmlns:inkscape="http://www.inkscape.org/namespaces/inkscape"
   width="386.01038"
   height="83.77504"
   viewBox="0 0 102.13191 22.16548"
   version="1.1"
   id="svg84501"
   inkscape:version="1.0.1 (c497b03c, 2020-09-10)"
   sodipodi:docname="logo-precyeux.svg">
  <defs
     id="defs84495" />
  <sodipodi:namedview
     id="base"
     pagecolor="#ffffff"
     bordercolor="#666666"
     borderopacity="1.0"
     inkscape:pageopacity="0.0"
     inkscape:pageshadow="2"
     inkscape:zoom="1.464"
     inkscape:cx="303.98209"
     inkscape:cy="69.655633"
     inkscape:document-units="px"
     inkscape:current-layer="layer1"
     inkscape:document-rotation="0"
     showgrid="false"
     units="px"
     inkscape:pagecheckerboard="true"
     inkscape:window-width="1434"
     inkscape:window-height="815"
     inkscape:window-x="0"
     inkscape:window-y="25"
     inkscape:window-maximized="0" />
  <metadata
     id="metadata84498">
    <rdf:RDF>
      <cc:Work
         rdf:about="">
        <dc:format>image/svg+xml</dc:format>
        <dc:type
           rdf:resource="http://purl.org/dc/dcmitype/StillImage" />
        <dc:title></dc:title>
        <dc:creator>
          <cc:Agent>
            <dc:title>https://twitter.com/kwashi9_ ; https://twitter.com/elkwaet </dc:title>
          </cc:Agent>
        </dc:creator>
        <dc:identifier>@Elkwaet</dc:identifier>
        <dc:description>by OPEN-SDF (https://open.sdf30.com)</dc:description>
        <cc:license
           rdf:resource="http://creativecommons.org/licenses/by-nd/4.0/" />
      </cc:Work>
      <cc:License
         rdf:about="http://creativecommons.org/licenses/by-nd/4.0/">
        <cc:permits
           rdf:resource="http://creativecommons.org/ns#Reproduction" />
        <cc:permits
           rdf:resource="http://creativecommons.org/ns#Distribution" />
        <cc:requires
           rdf:resource="http://creativecommons.org/ns#Notice" />
        <cc:requires
           rdf:resource="http://creativecommons.org/ns#Attribution" />
      </cc:License>
    </rdf:RDF>
  </metadata>
  <g
     inkscape:label="Calque 1"
     inkscape:groupmode="layer"
     id="layer1"
     transform="translate(137.24452,-26.71488)">
    <g
       id="g4039">
      <g
         id="g21696"
         transform="matrix(5.674115,0,0,5.674115,-855.37265,-55.870983)"
         inkscape:export-filename="/Users/godoevi/Documents/INK/EXPORTZ/precy-logo1.png"
         inkscape:export-xdpi="65.678482"
         inkscape:export-ydpi="65.678482"
         style="stroke-width:0.0466299;stroke-miterlimit:4;stroke-dasharray:none">
        <g
           id="g21684"
           transform="translate(35.835368)"
           style="stroke-width:0.0466299;stroke-miterlimit:4;stroke-dasharray:none">
          <path
             d="m 96.346549,15.394823 q 0.492906,0 0.756849,0.174902 0.263943,0.171722 0.263943,0.566047 0,0.397505 -0.267123,0.575587 -0.267124,0.174902 -0.76321,0.174902 h -0.155821 v 0.737769 h -0.496086 v -2.171966 q 0.162182,-0.0318 0.343444,-0.04452 0.181262,-0.01272 0.318004,-0.01272 z m 0.0318,0.422945 q -0.05407,0 -0.108121,0.0032 -0.05088,0.0032 -0.08904,0.0064 v 0.636008 h 0.155821 q 0.257584,0 0.387966,-0.06996 0.130381,-0.06996 0.130381,-0.260763 0,-0.09222 -0.03498,-0.152642 -0.0318,-0.06042 -0.0954,-0.0954 -0.06042,-0.03816 -0.149461,-0.05088 -0.08904,-0.0159 -0.197163,-0.0159 z"
             style="font-style:normal;font-variant:normal;font-weight:bold;font-stretch:normal;font-size:3.21675px;line-height:1;font-family:Ubuntu;-inkscape-font-specification:'Ubuntu Bold';word-spacing:0px;fill:#314fa9;fill-opacity:1;stroke-width:0.0466299;stroke-miterlimit:4;stroke-dasharray:none"
             id="path21672" />
          <path
             id="path21674"
             style="font-style:normal;font-variant:normal;font-weight:bold;font-stretch:normal;font-size:3.21675px;line-height:1;font-family:Ubuntu;-inkscape-font-specification:'Ubuntu Bold';word-spacing:0px;fill:#314fa9;fill-opacity:1;stroke-width:0.176239;stroke-miterlimit:4;stroke-dasharray:none"
             d="m 1370.4453,-131.39844 c -0.01,-9.7e-4 -0.01,-0.003 -0.014,-0.004 -0.1421,-0.0335 -0.2836,-0.0576 -0.4257,-0.0742 -0.1422,-0.0251 -0.2837,-0.0425 -0.4258,-0.0508 -0.1422,-0.0166 -0.2649,-0.0254 -0.3653,-0.0254 -0.5601,0 -1.0694,0.0554 -1.5293,0.16406 -0.4514,0.10033 -0.8433,0.20913 -1.1777,0.32617 v 6.24414 h 1.8672 v -5.04102 c 0.084,-0.0252 0.2044,-0.0459 0.3633,-0.0625 0.1672,-0.0249 0.3107,-0.0371 0.4277,-0.0371 0.2592,0 0.5008,0.024 0.7266,0.0742 0.2115,0.0392 0.3926,0.078 0.5527,0.11719 z"
             transform="matrix(0.26458333,0,0,0.26458333,-264.13298,50.648811)" />
          <g
             id="g21680"
             transform="translate(-0.05808279)"
             style="stroke-width:0.0466299;stroke-miterlimit:4;stroke-dasharray:none">
            <path
               id="path21676"
               style="font-style:normal;font-variant:normal;font-weight:bold;font-stretch:normal;font-size:3.21675px;line-height:1;font-family:Ubuntu;-inkscape-font-specification:'Ubuntu Bold';word-spacing:0px;fill:#314fa9;fill-opacity:1;stroke-width:0.176239;stroke-miterlimit:4;stroke-dasharray:none"
               d="m 1374.0664,-131.55273 c -0.389,0 -0.7697,0.0728 -1.1426,0.21875 -0.3647,0.14589 -0.6889,0.36087 -0.9726,0.64453 -0.2837,0.28369 -0.5151,0.63878 -0.6934,1.06836 -0.1702,0.42147 -0.2558,0.91701 -0.2558,1.48437 0,0.4701 0.066,0.90724 0.1953,1.3125 0.1378,0.40526 0.3435,0.7587 0.6191,1.0586 0.2836,0.29177 0.6372,0.5212 1.0586,0.6914 0.4296,0.17023 0.9323,0.25586 1.5078,0.25586 0.2269,0 0.4527,-0.0129 0.6797,-0.0371 0.2269,-0.0242 0.4382,-0.0552 0.6328,-0.0957 0.2026,-0.0325 0.3848,-0.0744 0.5469,-0.12305 0.055,-0.0164 0.084,-0.0327 0.1308,-0.0488 v -1.5625 c -0.2009,0.0869 -0.4575,0.16298 -0.7753,0.22657 -0.3162,0.0567 -0.6404,0.084 -0.9727,0.084 -0.5187,0 -0.9322,-0.10929 -1.2402,-0.32812 -0.308,-0.21884 -0.481,-0.51388 -0.5215,-0.88672 h 4.1094 c 0.011,-0.0973 0.016,-0.20654 0.023,-0.32813 0.011,-0.12967 0.012,-0.24814 0.012,-0.35351 0,-1.07801 -0.2642,-1.89221 -0.791,-2.44336 -0.5267,-0.55931 -1.2426,-0.83789 -2.1504,-0.83789 z m 0.023,1.49414 c 0.7246,0 1.1172,0.70507 1.1172,0.70507 0,0 -0.6167,0.52344 -1.1777,0.52344 -0.4735,0 -0.6905,-0.56458 -1.1172,-0.56836 0,0 0.4174,-0.66015 1.1777,-0.66015 z"
               transform="matrix(0.26458333,0,0,0.26458333,-264.0749,50.648811)" />
            <path
               style="font-style:normal;font-variant:normal;font-weight:bold;font-stretch:normal;font-size:3.21675px;line-height:1;font-family:Ubuntu;-inkscape-font-specification:'Ubuntu Bold';word-spacing:0px;fill:#314fa9;fill-opacity:1;stroke-width:0.0466299;stroke-miterlimit:4;stroke-dasharray:none"
               d="m 99.86937,15.394823 -0.462933,0.389986 -0.190784,-0.171145 0.194228,-0.221584 z"
               id="path21678"
               sodipodi:nodetypes="ccccc" />
          </g>
          <path
             id="path21682"
             style="font-style:normal;font-variant:normal;font-weight:bold;font-stretch:normal;font-size:3.21675px;line-height:1;font-family:Ubuntu;-inkscape-font-specification:'Ubuntu Bold';word-spacing:0px;fill:#314fa9;fill-opacity:1;stroke-width:0.176239;stroke-miterlimit:4;stroke-dasharray:none"
             d="m 1380.5078,-131.55273 c -0.5186,0 -0.9796,0.0893 -1.3848,0.26757 -0.4051,0.17829 -0.7515,0.42057 -1.0351,0.72852 -0.2837,0.29985 -0.5023,0.65701 -0.6563,1.07031 -0.1458,0.4052 -0.2187,0.83886 -0.2187,1.30078 0,0.47814 0.062,0.92459 0.1836,1.33789 0.1296,0.4052 0.3282,0.7568 0.5957,1.05664 0.2755,0.29984 0.6235,0.53851 1.0449,0.7168 0.4214,0.17018 0.9244,0.25586 1.5078,0.25586 0.3809,0 0.7289,-0.0328 1.0449,-0.0977 0.1111,-0.0228 0.1795,-0.0544 0.2774,-0.0801 v -1.56055 c -0.1419,0.0443 -0.2777,0.0957 -0.4356,0.12109 -0.251,0.0405 -0.4861,0.0606 -0.705,0.0606 -0.6159,0 -1.0496,-0.1566 -1.3008,-0.47266 -0.2432,-0.31605 -0.3653,-0.7625 -0.3653,-1.33789 0,-0.54296 0.1313,-0.98023 0.3907,-1.3125 0.2674,-0.33226 0.6682,-0.49804 1.2031,-0.49804 0.2512,0 0.4771,0.0236 0.6797,0.0723 0.1929,0.0463 0.3699,0.10118 0.5332,0.16211 v -1.5625 c -0.1412,-0.044 -0.2784,-0.10176 -0.4238,-0.13086 -0.2837,-0.0648 -0.5952,-0.0976 -0.9356,-0.0976 z"
             transform="matrix(0.26458333,0,0,0.26458333,-264.13298,50.648811)" />
        </g>
        <path
           d="m 138.51536,15.958104 0.48251,-0.563281 h 0.55328 l -0.79453,1.045208 v 1.183999 h -0.50182 v -1.177565 l -0.79775,-1.051642 h 0.58223 z"
           style="font-style:normal;font-variant:normal;font-weight:bold;font-stretch:normal;font-size:3.21675px;line-height:1;font-family:Ubuntu;-inkscape-font-specification:'Ubuntu Bold';word-spacing:0px;fill:#1e90ff;fill-opacity:1;stroke-width:0.0466299;stroke-miterlimit:4;stroke-dasharray:none"
           id="path21686"
           sodipodi:nodetypes="cccccccccc" />
        <g
           id="g21692"
           transform="translate(35.726068)"
           style="stroke-width:0.0466299;stroke-miterlimit:4;stroke-dasharray:none">
          <path
             d="m 106.97206,17.52468 q -0.12585,0.03643 -0.32457,0.06623 -0.19871,0.03312 -0.4173,0.03312 -0.2219,0 -0.37093,-0.05961 -0.14573,-0.05961 -0.23183,-0.165595 -0.0861,-0.109294 -0.12255,-0.25833 -0.0364,-0.149036 -0.0364,-0.32788 v -0.970392 h 0.49348 v 0.910778 q 0,0.238458 0.0629,0.344439 0.0629,0.105982 0.23514,0.105982 0.053,0 0.11261,-0.0033 0.0596,-0.0066 0.10598,-0.01325 v -1.344635 h 0.49348 z"
             style="font-style:normal;font-variant:normal;font-weight:bold;font-stretch:normal;font-size:3.21675px;line-height:1;font-family:Ubuntu;-inkscape-font-specification:'Ubuntu Bold';word-spacing:0px;fill:#1e90ff;fill-opacity:1;stroke-width:0.0466299;stroke-miterlimit:4;stroke-dasharray:none"
             id="path21688" />
          <path
             d="m 107.93802,16.384216 0.3523,-0.541996 h 0.52167 l -0.60975,0.857031 q 0.20325,0.25406 0.36924,0.49457 0.16598,0.240511 0.26421,0.430209 h -0.54199 q -0.0271,-0.05081 -0.0677,-0.125336 -0.0406,-0.07792 -0.0915,-0.159212 -0.0507,-0.08469 -0.1084,-0.165985 -0.0542,-0.08469 -0.10839,-0.152437 -0.0509,0.06436 -0.10499,0.142274 -0.0509,0.07792 -0.0983,0.159212 -0.0474,0.07792 -0.0949,0.155823 -0.044,0.07792 -0.0779,0.145661 h -0.5149 q 0.0406,-0.08469 0.11178,-0.199861 0.0711,-0.115173 0.15244,-0.237122 0.0847,-0.125337 0.17615,-0.247286 0.0914,-0.125337 0.17954,-0.233736 -0.15244,-0.21341 -0.30488,-0.430209 -0.15244,-0.220185 -0.30148,-0.433596 h 0.54537 z"
             style="font-style:normal;font-variant:normal;font-weight:bold;font-stretch:normal;font-size:3.21675px;line-height:1;font-family:Ubuntu;-inkscape-font-specification:'Ubuntu Bold';word-spacing:0px;fill:#1e90ff;fill-opacity:1;stroke-width:0.0466299;stroke-miterlimit:4;stroke-dasharray:none"
             id="path21690" />
        </g>
        <path
           id="path21694"
           style="font-style:normal;font-variant:normal;font-weight:bold;font-stretch:normal;font-size:3.21675px;line-height:1;font-family:Ubuntu;-inkscape-font-specification:'Ubuntu Bold';word-spacing:0px;fill:#1e90ff;fill-opacity:1;stroke-width:0.0466299;stroke-miterlimit:4;stroke-dasharray:none"
           d="m 140.36195,15.842222 c -0.10292,0 -0.20365,0.01926 -0.30231,0.05788 -0.0965,0.0386 -0.18228,0.09548 -0.25734,0.170531 -0.0751,0.07506 -0.13628,0.169011 -0.18346,0.282671 -0.045,0.111514 -0.0677,0.242625 -0.0677,0.392739 0,0.124381 0.0175,0.240041 0.0517,0.347266 0.0365,0.107225 0.0909,0.200739 0.16381,0.280088 0.075,0.0772 0.16859,0.137901 0.28008,0.182933 0.11367,0.04504 0.24668,0.0677 0.39894,0.0677 0.06,0 0.11978,-0.0034 0.17984,-0.0098 0.06,-0.0064 0.11594,-0.01461 0.16743,-0.02532 0.0536,-0.0086 0.10181,-0.01969 0.1447,-0.03256 0.0145,-0.0043 0.0222,-0.0087 0.0346,-0.01291 v -0.413412 c -0.0532,0.02299 -0.12105,0.04312 -0.20513,0.05995 -0.0837,0.015 -0.16944,0.02222 -0.25736,0.02222 -0.13724,0 -0.24665,-0.02892 -0.32814,-0.08682 -0.0815,-0.0579 -0.12727,-0.135964 -0.13798,-0.234611 h 1.08728 c 0.003,-0.02574 0.004,-0.05465 0.006,-0.08682 0.003,-0.03431 0.003,-0.06565 0.003,-0.09353 0,-0.285224 -0.0699,-0.500647 -0.20929,-0.646472 -0.13935,-0.147985 -0.32877,-0.221692 -0.56896,-0.221692 z m 0.006,0.395325 c 0.19172,0 0.2956,0.186549 0.2956,0.186549 0,0 -0.16317,0.138494 -0.3116,0.138494 -0.12528,0 -0.1827,-0.149379 -0.2956,-0.150379 0,0 0.11044,-0.174664 0.3116,-0.174664 z" />
      </g>
      <g
         id="g21718"
         transform="matrix(6.1646086,0,0,6.1646086,-566.32705,-17.377632)"
         inkscape:export-filename="/Users/godoevi/Documents/INK/EXPORTZ/precy-logo1.png"
         inkscape:export-xdpi="65.678482"
         inkscape:export-ydpi="65.678482"
         style="stroke-width:0.0429197;stroke-miterlimit:4;stroke-dasharray:none">
        <path
           id="path21702"
           style="opacity:1;fill:#1e90ff;fill-opacity:1;stroke:none;stroke-width:0.0429197;stroke-linecap:round;stroke-linejoin:round;stroke-miterlimit:4;stroke-dasharray:none;stroke-opacity:1;paint-order:stroke fill markers;stop-color:#000000"
           inkscape:transform-center-x="1.6046374e-06"
           inkscape:transform-center-y="0.20654211"
           d="m 73.390911,8.2833595 a 0.10583333,0.10583333 0 0 0 -0.07803,0.03514 c -0.08596,0.09437 -0.560202,0.5881102 -1.216475,0.7715273 0.06109,0.029514 0.102156,0.09788 0.08115,0.1700159 l -0.39534,1.3652923 1.886188,-2.1662755 a 0.10583333,0.10583333 0 0 0 -0.08009,-0.175702 z m -1.36787,0.8712647 c -0.02392,0.00553 -0.04866,0.00787 -0.07287,0.012404 a 0.10583333,0.10583333 0 0 0 -0.0083,0.020669 l -0.405659,1.3833788 0.02585,0.0894 c 0.01,0.03415 0.03466,0.04858 0.06252,0.04858 0.02789,0 0.05458,-0.01442 0.06461,-0.04858 l 0.412379,-1.4242014 c 0.01458,-0.05016 -0.0276,-0.093197 -0.07856,-0.08165 z" />
        <path
           id="path21704"
           style="opacity:1;fill:#314fa9;fill-opacity:1;stroke:none;stroke-width:0.0429197;stroke-linecap:round;stroke-linejoin:round;stroke-miterlimit:4;stroke-dasharray:none;stroke-opacity:1;paint-order:stroke fill markers;stop-color:#000000"
           inkscape:transform-center-x="1.4218862e-06"
           inkscape:transform-center-y="0.20669407"
           d="m 69.713626,8.2833595 a 0.10583333,0.10583333 0 0 0 -0.02119,0.0026 l -0.04032,0.06976 c -0.02601,0.04569 0.0058,0.09965 0.05842,0.09974 h 0.437674 a 0.03969147,0.03969147 0 0 1 0.0021,0 c 0.04218,1.08e-4 0.05937,-0.02596 0.06406,-0.05685 0.0047,-0.0309 -0.0041,-0.06155 -0.04442,-0.0739 a 0.03969147,0.03969147 0 0 1 -0.0021,0 c -0.02013,-0.0063 -0.05575,-0.0034 -0.09612,-0.01188 a 0.03969147,0.03969147 0 0 1 -0.02895,-0.02946 z m 0.565838,0.04599 c 0.01169,0.02586 0.01751,0.05412 0.01344,0.08113 -0.0096,0.06379 -0.06517,0.123195 -0.144701,0.122992 h -0.439235 c -0.0052,-8e-6 -0.0089,-0.0036 -0.01394,-0.0041 l 1.771464,2.0861785 -0.41394,-1.4335042 c -0.02477,-0.087109 0.0372,-0.1734105 0.125068,-0.182417 C 70.887902,8.8063454 70.634748,8.4845325 70.279466,8.3293835 Z m 0.911595,0.7451753 c -0.0449,1.006e-4 -0.0748,0.04055 -0.06255,0.083714 l 0.433572,1.5022352 c 0.01,0.03415 0.03466,0.04857 0.06252,0.04857 0.02789,0 0.05458,-0.01442 0.06461,-0.04857 l 0.02686,-0.09302 -0.406691,-1.4469398 c -0.02879,-0.01252 -0.05953,-0.020992 -0.08681,-0.036174 -0.0097,-0.00548 -0.0204,-0.00969 -0.03151,-0.00982 z" />
        <path
           id="path21706"
           style="opacity:1;fill:#425598;fill-opacity:1;stroke:none;stroke-width:0.0429197;stroke-linecap:round;stroke-linejoin:round;stroke-miterlimit:4;stroke-dasharray:none;stroke-opacity:1;paint-order:stroke fill markers;stop-color:#000000"
           inkscape:transform-center-x="1.6046374e-06"
           inkscape:transform-center-y="0.20654211"
           d="M 71.191906,9.0353374 A 0.10583333,0.10583333 0 0 0 71.090344,9.170103 l 0.433594,1.501953 a 0.10583333,0.10583333 0 0 0 0.203124,0 l 0.41211,-1.423828 a 0.10583333,0.10583333 0 0 0 -0.125,-0.1328125 c -0.12236,0.028258 -0.24765,0.044484 -0.376953,0.042969 -0.145775,-0.0017 -0.276352,-0.043582 -0.394531,-0.109375 a 0.10583333,0.10583333 0 0 0 -0.05078,-0.013672 z" />
        <path
           style="color:#000000;font-style:normal;font-variant:normal;font-weight:normal;font-stretch:normal;font-size:medium;line-height:normal;font-family:sans-serif;font-variant-ligatures:normal;font-variant-position:normal;font-variant-caps:normal;font-variant-numeric:normal;font-variant-alternates:normal;font-variant-east-asian:normal;font-feature-settings:normal;font-variation-settings:normal;text-indent:0;text-align:start;text-decoration:none;text-decoration-line:none;text-decoration-style:solid;text-decoration-color:#000000;letter-spacing:normal;word-spacing:normal;text-transform:none;writing-mode:lr-tb;direction:ltr;text-orientation:mixed;dominant-baseline:auto;baseline-shift:baseline;text-anchor:start;white-space:normal;shape-padding:0;shape-margin:0;inline-size:0;clip-rule:nonzero;display:inline;overflow:visible;visibility:visible;opacity:1;isolation:auto;mix-blend-mode:normal;color-interpolation:sRGB;color-interpolation-filters:linearRGB;solid-color:#000000;solid-opacity:1;vector-effect:none;fill:#425598;fill-opacity:1;fill-rule:nonzero;stroke:none;stroke-width:0.0429197;stroke-linecap:round;stroke-linejoin:round;stroke-miterlimit:4;stroke-dasharray:none;stroke-dashoffset:0;stroke-opacity:1;paint-order:stroke fill markers;color-rendering:auto;image-rendering:auto;shape-rendering:auto;text-rendering:auto;enable-background:accumulate;stop-color:#000000;stop-opacity:1"
           d="m -56.201172,44.125 c -0.279525,-0.115784 -0.602466,-0.04988 -0.816406,0.164062 -0.21394,0.21394 -0.277893,0.536881 -0.16211,0.816407 0.115784,0.279525 0.388851,0.460937 0.691407,0.460937 a 0.171979,0.171979 0 0 0 0.171875,-0.171875 0.171979,0.171979 0 0 0 -0.171875,-0.171875 c -0.164426,0 -0.312077,-0.09809 -0.375,-0.25 -0.06292,-0.15191 -0.02838,-0.325139 0.08789,-0.441406 0.116267,-0.116267 0.289497,-0.150814 0.441407,-0.08789 0.151909,0.06292 0.251953,0.210575 0.251953,0.375 a 0.171979,0.171979 0 0 0 0.171875,0.171875 0.171979,0.171979 0 0 0 0.171875,-0.171875 c 0,-0.302556 -0.183366,-0.577576 -0.462891,-0.69336 z"
           id="path21708"
           transform="rotate(-135)" />
        <path
           id="path21710"
           style="opacity:1;fill:#1e90ff;fill-opacity:1;stroke:none;stroke-width:0.0429197;stroke-linecap:round;stroke-linejoin:round;stroke-miterlimit:4;stroke-dasharray:none;stroke-opacity:1;paint-order:stroke fill markers;stop-color:#000000"
           inkscape:transform-center-x="1.3361007e-06"
           inkscape:transform-center-y="0.098001568"
           d="m 70.377453,7.1525245 a 0.10583333,0.10583333 0 0 0 -0.0918,0.158203 l 0.201172,0.347657 a 0.10583333,0.10583333 0 0 0 0.15625,0.03125 c 0.182935,-0.139798 0.388282,-0.261539 0.613281,-0.330078 a 0.10583333,0.10583333 0 0 0 -0.03125,-0.207032 z" />
        <path
           style="opacity:1;fill:#191970;fill-opacity:1;stroke:none;stroke-width:0.0429197;stroke-linecap:round;stroke-linejoin:round;stroke-miterlimit:4;stroke-dasharray:none;stroke-opacity:1;paint-order:stroke fill markers;stop-color:#000000"
           d="m 70.235543,7.2668875 -0.617538,1.069184 a 0.10583333,0.10583333 0 0 0 0.09147,0.158131 h 0.43979 a 0.10583333,0.10583333 0 0 0 0.03098,-0.206706 c -0.03077,-0.0097 -0.06694,-0.0071 -0.09922,-0.01395 0.22016,-0.248111 0.462836,-0.476197 0.516255,-0.526069 -0.05593,0.0067 -0.114062,-0.01729 -0.144171,-0.06976 l -0.201533,-0.347266 c -0.01159,-0.02036 -0.01492,-0.04226 -0.01603,-0.06356 z"
           id="path21712" />
        <path
           style="opacity:1;fill:#314fa9;fill-opacity:1;stroke:none;stroke-width:0.0429197;stroke-linecap:round;stroke-linejoin:round;stroke-miterlimit:4;stroke-dasharray:none;stroke-opacity:1;paint-order:stroke fill markers;stop-color:#000000"
           d="m 72.93977,7.1583645 a 0.10583333,0.10583333 0 0 0 -0.09353,0.05271 l -0.195342,0.335896 a 0.10583333,0.10583333 0 0 0 0.02741,0.136943 c 0,0 0.345123,0.291635 0.587561,0.624769 0.0035,-0.0038 0.01434,-0.01461 0.01704,-0.01757 0.02738,-0.03052 0.06649,-0.04677 0.1075,-0.04702 h 0.197379 c 0.01799,-1.12e-4 0.03202,0.0084 0.04755,0.01395 l -0.605631,-1.046964 a 0.10583333,0.10583333 0 0 0 -0.08993,-0.05271 z"
           id="path21714" />
        <path
           style="opacity:1;fill:#191970;fill-opacity:1;stroke:none;stroke-width:0.0429197;stroke-linecap:round;stroke-linejoin:round;stroke-miterlimit:4;stroke-dasharray:none;stroke-opacity:1;paint-order:stroke fill markers;stop-color:#000000"
           d="m 72.084531,7.1526805 a 0.10583333,0.10583333 0 0 0 -0.03151,0.206706 c 0.201692,0.06144 0.386873,0.166733 0.55499,0.288354 -0.01368,-0.03884 -0.01302,-0.08247 0.0088,-0.120407 l 0.195342,-0.335896 c 0.0096,-0.01646 0.02471,-0.02749 0.03926,-0.03876 z"
           id="path21716" />
      </g>
    </g>
  </g>
</svg>
